<svg xmlns="http://www.w3.org/2000/svg" viewBox="0 0 24 24" width="40" height="40">
  <path fill="#0077B5" d="M22.23 0H1.77C.79 0 0 .77 0 1.72v20.56C0 23.23.79 24 1.77 24h20.45c.98 0 1.78-.77 1.78-1.72V1.72C24 .77 23.2 0 22.23 0zM7.12 20.45H3.56V8.98h3.56v11.47zM5.34 7.43c-1.14 0-2.07-.94-2.07-2.07s.93-2.07 2.07-2.07c1.14 0 2.07.94 2.07 2.07s-.93 2.07-2.07 2.07zm15.1 13.02h-3.55v-5.58c0-1.33-.02-3.03-1.85-3.03-1.85 0-2.13 1.45-2.13 2.94v5.67H9.36V8.98h3.41v1.57h.05c.47-.9 1.62-1.85 3.34-1.85 3.57 0 4.23 2.35 4.23 5.41v6.34z"/>
</svg>
