<svg xmlns="http://www.w3.org/2000/svg" viewBox="0 0 24 24">
  <path fill="#25D366" d="M12 .5C5.7.5.5 5.7.5 12c0 2.1.5 4.1 1.5 5.9L.5 23.5l5.8-1.5c1.7 1 3.7 1.5 5.7 1.5 6.3 0 11.5-5.2 11.5-11.5S18.3.5 12 .5zm0 21c-1.8 0-3.5-.5-5.1-1.4l-.4-.2-3.4.9.9-3.3-.3-.5c-.9-1.5-1.4-3.3-1.4-5.1C2.5 6 6.7 1.8 12 1.8s9.5 4.2 9.5 9.5-4.2 9.2-9.5 9.2zm4.8-6.8c-.3-.2-1.7-.8-2-.9-.3-.1-.5-.2-.8.2-.2.3-.9 1-1.1 1.3-.2.2-.4.3-.7.1-.3-.1-1.2-.4-2.3-1.5-.8-.7-1.4-1.6-1.5-1.9-.2-.3 0-.6.2-.8.2-.2.4-.4.6-.7.2-.2.3-.4.5-.6.2-.3.1-.5 0-.7-.1-.2-.8-2-1.1-2.7-.3-.7-.6-.6-.8-.6h-.7c-.2 0-.6.1-.9.5-.3.3-1.2 1.1-1.2 2.7s1.3 3.2 1.5 3.5c.2.3 2.5 4 6 5.3.8.3 1.5.5 2 .6.8.2 1.5.1 2.1.1.6-.1 1.7-.7 2-1.4s.2-1.3.1-1.4c0 0-.2-.2-.4-.3z"/>
</svg>
